<?xml version="1.0" encoding="utf-8"?>
<!-- Generator: Adobe Illustrator 16.0.0, SVG Export Plug-In . SVG Version: 6.00 Build 0)  -->
<!DOCTYPE svg PUBLIC "-//W3C//DTD SVG 1.1//EN" "http://www.w3.org/Graphics/SVG/1.1/DTD/svg11.dtd">
<svg version="1.1" id="Layer_2" xmlns="http://www.w3.org/2000/svg" xmlns:xlink="http://www.w3.org/1999/xlink" x="0px" y="0px"
	 width="425.197px" height="354.331px" viewBox="0 0 425.197 354.331" enable-background="new 0 0 425.197 354.331"
	 xml:space="preserve">
<g>
	<path fill="none" d="M188.359,161.245c-4.697,0.905-7.636,5.395-7.365,11.117c0.266,5.681,3.574,9.015,8.271,8.108
		c4.743-0.914,7.678-5.449,7.411-11.125C196.406,163.613,193.105,160.329,188.359,161.245z"/>
	<path fill="none" d="M224.21,154.337c-4.699,0.903-7.635,5.389-7.369,11.118c0.271,5.68,3.574,9.011,8.277,8.105
		c4.738-0.912,7.664-5.444,7.406-11.121C232.251,156.709,228.952,153.425,224.21,154.337z"/>
	<path fill="none" d="M82.439,181.652c-4.702,0.904-7.642,5.391-7.372,11.098c0.269,5.682,3.57,9.018,8.275,8.105
		c4.735-0.912,7.669-5.443,7.404-11.109C90.48,184.02,87.177,180.734,82.439,181.652z"/>
	<path fill="none" d="M152.604,168.378l-5.736,1.106l0.875,18.742l5.745-1.109c4.159-0.801,7.619-4.898,7.343-10.723
		C160.56,170.572,156.768,167.579,152.604,168.378z"/>
	<path fill="none" d="M270.462,145.677l-4.848,0.929l0.393,8.061l4.828-0.93c2.496-0.479,3.396-2.855,3.307-4.698
		C274.058,147.195,272.958,145.2,270.462,145.677z"/>
	<path fill="none" d="M118.283,174.746c-4.697,0.905-7.638,5.387-7.367,11.116c0.266,5.664,3.575,8.994,8.273,8.09
		c4.744-0.914,7.678-5.428,7.405-11.107C126.329,177.12,123.025,173.833,118.283,174.746z"/>
	<path fill="none" d="M408.635,169.258l-0.012-82.359l-50.701,9.65L95.48,146.503l-77.226,14.699l0.055,82.488l120.078-22.898
		l166.12-31.678L408.635,169.258z M51.175,214.703l-16.86-31.637l8.322-1.607l7.719,14.889l6.78-17.68l8.052-1.552L51.175,214.703z
		 M83.72,208.914c-8.364,1.615-15.454-4.516-15.931-14.762c-0.481-10.223,5.906-18.95,14.271-20.56
		c8.362-1.609,15.486,4.513,15.97,14.755C98.512,198.572,92.075,207.305,83.72,208.914z M119.564,202.01
		c-8.36,1.611-15.449-4.521-15.93-14.746c-0.476-10.24,5.915-18.967,14.273-20.579c8.354-1.61,15.484,4.517,15.967,14.754
		C134.353,191.666,127.927,200.4,119.564,202.01z M374.884,137.531c-3.564-0.878-7.695-2.335-7.975-8.294
		c-0.246-5.287,4.09-10.965,10.402-12.182c5.57-1.07,10.16,2.055,11.783,7.125l-6.635,3.429c-0.844-2.869-3.154-3.841-5.227-3.444
		c-2.088,0.401-3.23,1.843-3.16,3.203c0.096,2.228,3.047,2.495,6.646,3.316c4.406,1.011,9.066,2.996,9.342,8.81
		c0.295,6.211-4.062,11.503-10.838,12.805c-6.062,1.163-10.568-1.927-12.775-7.907l6.588-3.376c0.871,2.427,3.068,4.597,6.135,4.001
		c2.498-0.476,3.596-2.06,3.516-3.708C382.563,138.596,379.12,138.569,374.884,137.531z M357.794,120.772l6.893-1.326l-3.121,7.633
		l-3.117,7.625l-3.771-6.304l-3.777-6.299L357.794,120.772z M324.058,127.126l5.896,8.314c0.93,1.338,1.621,2.267,1.664,2.258
		l0.049-0.003c0.035-0.012,0.633-1.19,1.42-2.856l5.01-10.421l8.068-1.548l-10.586,21.756l0.727,15.524l-7.162,1.383l-0.73-15.528
		l-12.424-17.322L324.058,127.126z M153.849,194.719l-12.729,2.453l-1.6-33.96l12.729-2.454c8.319-1.604,15.388,4.04,15.862,14.237
		C168.592,185.186,162.164,193.115,153.849,194.719z M189.645,188.529c-8.361,1.59-15.446-4.521-15.931-14.767
		c-0.476-10.239,5.905-18.962,14.27-20.579c8.359-1.609,15.491,4.509,15.97,14.755C204.436,178.186,198.005,186.918,189.645,188.529
		z M225.493,181.619c-8.359,1.615-15.448-4.517-15.93-14.757c-0.481-10.247,5.909-18.972,14.268-20.582
		c8.359-1.611,15.488,4.513,15.969,14.755C240.282,171.279,233.849,180.014,225.493,181.619z M275.854,171.239l-5.924-10.027
		l-3.576,0.688l0.523,11.068l-7.025,1.344l-1.594-33.978l10.887-2.088c7.318-1.415,11.945,2.397,12.275,9.385
		c0.207,4.568-1.498,8.322-4.779,10.818l7.039,11.288L275.854,171.239z M296.958,167.288l-8.055,1.549l14.01-37.604l16.859,31.657
		l-8.322,1.607l-1.619-2.611l-11.379,2.192L296.958,167.288z"/>
	<polygon fill="none" points="301.722,155.529 306.103,154.687 303.729,149.594 	"/>
	<path fill="#FFFFFF" d="M412.013,172.119l0.065-0.013l-0.012-89.368l-51.873,9.874l7.863-13.626H56.485l28.156,48.749
		l-69.797,30.612l-0.034,0.006l0.06,89.5l125.342-23.902l72.13,124.886l72.849-126.246L412.013,172.119z M138.388,220.792
		L18.31,243.69l-0.055-82.488l77.226-14.699l262.441-49.954l50.701-9.65l0.012,82.359l-104.127,19.856L138.388,220.792z"/>
	<polygon fill="#FFFFFF" points="50.356,196.348 42.637,181.459 34.315,183.066 51.175,214.703 65.188,177.116 57.136,178.668 	"/>
	<g>
		<path fill="#FFFFFF" d="M358.448,134.704l3.117-7.625l3.121-7.633l-6.893,1.326l-6.895,1.328l3.777,6.299L358.448,134.704z
			 M358.134,124.258c0.57-0.116,1.066,0.34,1.098,1.008c0.029,0.67-0.408,1.306-0.979,1.413c-0.584,0.111-1.068-0.344-1.102-1.01
			C357.114,125,357.562,124.371,358.134,124.258z"/>
	</g>
	<path fill="#FFFFFF" d="M379.171,145.018c-3.066,0.596-5.264-1.574-6.135-4.001l-6.588,3.376c2.207,5.979,6.713,9.07,12.775,7.907
		c6.775-1.302,11.133-6.594,10.838-12.805c-0.275-5.814-4.936-7.799-9.342-8.81c-3.6-0.821-6.551-1.088-6.646-3.316
		c-0.07-1.36,1.072-2.802,3.16-3.203c2.072-0.397,4.383,0.575,5.227,3.444l6.635-3.429c-1.623-5.07-6.213-8.195-11.783-7.125
		c-6.312,1.217-10.648,6.896-10.402,12.182c0.279,5.959,4.41,7.416,7.975,8.294c4.236,1.039,7.68,1.065,7.803,3.78
		C382.767,142.958,381.669,144.542,379.171,145.018z"/>
	<path fill="#FFFFFF" d="M329.144,161.533l7.162-1.383l-0.727-15.524l10.586-21.756l-8.068,1.548l-5.01,10.421
		c-0.787,1.666-1.385,2.845-1.42,2.856l-0.049,0.003c-0.043,0.009-0.734-0.919-1.664-2.258l-5.896-8.314l-8.068,1.556l12.424,17.322
		L329.144,161.533z"/>
	<path fill="#FFFFFF" d="M82.06,173.592c-8.365,1.61-14.751,10.337-14.271,20.56c0.477,10.246,7.567,16.377,15.931,14.762
		c8.355-1.609,14.792-10.342,14.31-20.566C97.545,178.105,90.421,171.983,82.06,173.592z M83.342,200.855
		c-4.705,0.912-8.006-2.424-8.275-8.105c-0.27-5.707,2.669-10.193,7.372-11.098c4.738-0.918,8.042,2.367,8.308,8.094
		C91.011,195.412,88.078,199.943,83.342,200.855z"/>
	<path fill="#FFFFFF" d="M117.908,166.685c-8.359,1.611-14.749,10.339-14.273,20.579c0.481,10.225,7.57,16.357,15.93,14.746
		c8.362-1.609,14.788-10.344,14.311-20.57C133.392,171.202,126.263,165.075,117.908,166.685z M119.189,193.951
		c-4.698,0.904-8.008-2.426-8.273-8.09c-0.271-5.729,2.67-10.21,7.367-11.116c4.743-0.913,8.046,2.374,8.312,8.098
		C126.867,188.523,123.933,193.037,119.189,193.951z"/>
	<path fill="#FFFFFF" d="M152.249,160.757l-12.729,2.454l1.6,33.96l12.729-2.453c8.315-1.604,14.744-9.533,14.263-19.724
		C167.637,164.797,160.568,159.153,152.249,160.757z M153.488,187.117l-5.745,1.109l-0.875-18.742l5.736-1.106
		c4.163-0.8,7.956,2.193,8.227,8.016C161.107,182.219,157.647,186.316,153.488,187.117z"/>
	<path fill="#FFFFFF" d="M187.983,153.184c-8.365,1.617-14.746,10.339-14.27,20.579c0.485,10.246,7.57,16.357,15.931,14.767
		c8.361-1.611,14.792-10.344,14.309-20.59C203.474,157.692,196.343,151.575,187.983,153.184z M189.265,180.471
		c-4.697,0.906-8.005-2.428-8.271-8.108c-0.271-5.723,2.668-10.212,7.365-11.117c4.746-0.917,8.047,2.368,8.316,8.1
		C196.942,175.022,194.008,179.557,189.265,180.471z"/>
	<path fill="#FFFFFF" d="M223.831,146.281c-8.359,1.609-14.75,10.334-14.268,20.582c0.482,10.24,7.571,16.372,15.93,14.757
		c8.355-1.605,14.789-10.34,14.307-20.583C239.319,150.794,232.19,144.67,223.831,146.281z M225.118,173.561
		c-4.703,0.905-8.006-2.425-8.277-8.105c-0.266-5.729,2.67-10.215,7.369-11.118c4.742-0.913,8.041,2.372,8.314,8.103
		C232.782,168.117,229.856,172.649,225.118,173.561z"/>
	<path fill="#FFFFFF" d="M281.421,147.631c-0.33-6.987-4.957-10.799-12.275-9.385l-10.887,2.088l1.594,33.978l7.025-1.344
		l-0.523-11.068l3.576-0.688l5.924,10.027l7.826-1.502l-7.039-11.288C279.923,155.953,281.628,152.199,281.421,147.631z
		 M270.835,153.737l-4.828,0.93l-0.393-8.061l4.848-0.929c2.496-0.477,3.596,1.518,3.68,3.362
		C274.231,150.881,273.331,153.258,270.835,153.737z"/>
	<path fill="#FFFFFF" d="M311.45,164.498l8.322-1.607l-16.859-31.657l-14.01,37.604l8.055-1.549l1.494-3.208l11.379-2.192
		L311.45,164.498z M301.722,155.529l2.008-5.935l2.373,5.093L301.722,155.529z"/>
	<polygon fill="#FFFFFF" points="375.768,65.739 409.566,7.229 15.118,7.229 48.862,65.739 	"/>
</g>
</svg>
