<?xml version="1.0" encoding="utf-8"?>
<!-- Generator: Adobe Illustrator 21.1.0, SVG Export Plug-In . SVG Version: 6.00 Build 0)  -->
<svg version="1.1" id="Layer_1" xmlns="http://www.w3.org/2000/svg" xmlns:xlink="http://www.w3.org/1999/xlink" x="0px" y="0px"
	 viewBox="0 0 218 134" style="enable-background:new 0 0 218 134;" xml:space="preserve">
<line style="fill:none;" x1="1069" y1="-43" x2="-851" y2="-43"/>
<g style="opacity:0.95;enable-background:new    ;">
	<g>
		<defs>
			<rect id="SVGID_1_" y="0" width="218" height="134"/>
		</defs>
		<clipPath id="SVGID_2_">
			<use xlink:href="#SVGID_1_"  style="overflow:visible;"/>
		</clipPath>
		<g style="clip-path:url(#SVGID_2_);">
			<defs>
				<path id="SVGID_3_" d="M15.4,73.2c-0.2,0.5-0.4,1-0.5,1.5c-1.9,6.7-3.8,13.4-5.8,20.1c-0.9,3-1.6,6-2.6,9
					c-0.5,1.7-3,3.3-4.4,3.2c-1.5-0.2-2.3-1.3-2.2-2.8c0.4-5.3,1.7-10.5,3-15.6c1.2-4.7,2.8-9.3,4.3-14c1-3.2,2.1-6.4,3.2-9.6
					c0.4-1.2,0.9-2.3,1.5-3.3c0.6-1,1.5-1.7,2.3-2.6c0.1-0.1,0.3-0.1,0.5-0.1c2.7,0.3,5,1.3,5.9,4.1c1.4,4.2,2.7,8.3,4,12.5
					c0.6,2,0.9,4.1,1.4,6.1c0.1,0,0.3,0,0.4,0c0.9-1.6,1.7-3.3,2.8-4.8c3.7-5.2,7.4-10.4,11.2-15.5c1.4-1.8,1.5-1.6,3.8-0.9
					c1.5,0.5,2.9,1,3.4,2.4c0.4,1.5,0.3,3.1,0.3,4.6c0.1,4.1-0.1,8.3,0.2,12.4c0.4,5.6,1.2,11.3,1.7,16.9c0.2,1.8-0.2,3.7-1.8,4.8
					c-0.9,0.6-2.1,0.9-3.1,1c-0.8,0.1-1.7-0.2-2.7-0.4c-0.6-0.9-0.8-2-0.8-3.4c0.1-2.7-0.2-5.3-0.6-8c-0.7-4.6-1.2-9.2-1.1-13.9
					c0-0.6-0.1-1.2-0.1-1.8c-0.1,0-0.2-0.1-0.4-0.1c-0.9,1.4-1.9,2.7-2.7,4.1c-1.3,2.3-2.4,4.6-3.6,6.9c-0.7,1.5-1.2,3.1-2,4.5
					c-0.7,1.3-1.4,2.6-3.3,2.6c-1,0-1.9,0.4-2.9,0.5c-0.4,0-1-0.1-1.3-0.4c-1.6-1.8-3.3-3.4-4-6c-1.1-4.6-2.5-9.2-3.8-13.8
					c0-0.2-0.1-0.3-0.2-0.5C15.6,73.2,15.5,73.2,15.4,73.2"/>
			</defs>
			<clipPath id="SVGID_4_">
				<use xlink:href="#SVGID_3_"  style="overflow:visible;"/>
			</clipPath>
			<g style="clip-path:url(#SVGID_4_);">
				<defs>
					<rect id="SVGID_5_" y="0" width="218" height="134"/>
				</defs>
				<clipPath id="SVGID_6_">
					<use xlink:href="#SVGID_5_"  style="overflow:visible;"/>
				</clipPath>
				<rect x="-5" y="54" style="clip-path:url(#SVGID_6_);fill:#222323;" width="60" height="58"/>
			</g>
		</g>
		<g style="clip-path:url(#SVGID_2_);">
			<defs>
				<path id="SVGID_7_" d="M138.2,29.6c-0.1,0-0.2,0-0.3,0.1c-1.1-1.5-2.2-3-3.2-4.5c-1.6-2.3-3.1-4.8-4.8-7
					c-1.7-2.2-2.2-5.1-4.1-7.1c-0.1-0.1-0.1-0.4-0.1-0.5c-0.6-1-1-2.1-1.8-2.9c-1.5-1.4-4.6-0.3-5.3,1.8c-0.5,1.6-1,3.3-1.2,4.9
					c-0.5,3.6-1,7.3-1.1,10.9c-0.2,5.7-0.2,11.4-0.2,17c0,0.6,0.5,1.2,0.9,1.8c1,1.4,2.6,0.9,4,1.1c0.7,0.1,1.8,0,1.9-0.3
					c0.6-1.3,0.9-2.8,1.2-4.2c0.1-0.6-0.2-1.3-0.2-2c0.1-3.6,0.1-7.3,0.2-11c0-0.4,0.3-0.7,0.5-1.3c1.6,2.3,3,4.3,4.5,6.2
					c2.5,3.5,5,7,9.3,8.8c1.1,0.5,3.1,0,4-0.9c0.6-0.6,1.3-1.2,2-1.6c1.2-0.7,2.2-1.3,2.2-2.9c0-4.2,0.3-8.4,0.3-12.6
					c0-3.7-0.1-7.5-0.3-11.2c-0.1-1.3-0.5-2.5-0.9-3.7c-0.2-0.6-0.6-1.3-1-1.8c-0.6-0.6-1.4-1.4-2.1-1.4c-2.2,0.1-3.9,1.8-4.1,4
					c-0.2,2.5-0.2,4.9-0.2,7.4c0,3.4,0.1,6.9,0.2,10.3C138.4,27.7,138.3,28.6,138.2,29.6"/>
			</defs>
			<clipPath id="SVGID_8_">
				<use xlink:href="#SVGID_7_"  style="overflow:visible;"/>
			</clipPath>
			<g style="clip-path:url(#SVGID_8_);">
				<defs>
					<rect id="SVGID_9_" y="0" width="218" height="134"/>
				</defs>
				<clipPath id="SVGID_10_">
					<use xlink:href="#SVGID_9_"  style="overflow:visible;"/>
				</clipPath>
				<rect x="111" y="0" style="clip-path:url(#SVGID_10_);fill:#222323;" width="41" height="50"/>
			</g>
		</g>
		<g style="clip-path:url(#SVGID_2_);">
			<defs>
				<path id="SVGID_11_" d="M120.1,84.2c-0.1,0-0.3,0.1-0.4,0.1c-0.2-0.3-0.4-0.5-0.6-0.8c-1.2-2.5-2.4-5-3.7-7.5
					c-0.7-1.4-1.1-3-2.1-4.1c-1.5-1.7-3.3-3.1-5.1-4.5c-0.9-0.8-1.9-0.6-3,0.2c-1.2,0.9-1.2,2.1-1.6,3.2c-2.8,8.4-4.1,17.1-4.6,25.9
					c-0.1,2.3,0.5,4.6,0.9,6.9c0.1,0.5,0.9,1.2,1.2,1.2c1.3-0.3,2.3,0.6,3.7,0.3c2.2-0.4,2.5-0.2,2.4-2.5c-0.1-2.4-0.3-4.8-0.1-7.2
					c0.2-2.9,0.6-5.7,1-8.5c0.2-1.5,0.6-2.9,0.9-4.4c0.5,0.3,0.7,0.6,0.8,0.9c1.8,3.6,3.5,7.3,5.5,10.8c1.1,1.9,2,3.9,4.3,5.1
					c1.1,0.6,1.6,2,3.4,1.8c0.5-0.1,1.2,0.7,2.1,0.3c0.7-0.3,2,0,2.4-0.5c0.4-0.5,0.2-1.6,0.2-2.5c0.2-2.8,0.5-5.6,0.5-8.4
					c-0.2-6.6,1.2-13.1,1.8-19.7c0.3-3.5-1.1-4.9-3.7-6.1c-0.2-0.1-0.6-0.1-0.8,0c-1,0.8-2.3,1.5-2.7,2.6
					c-1.8,5.2-2.6,10.6-2.6,16.1C120.2,83.3,120.1,83.7,120.1,84.2"/>
			</defs>
			<clipPath id="SVGID_12_">
				<use xlink:href="#SVGID_11_"  style="overflow:visible;"/>
			</clipPath>
			<g style="clip-path:url(#SVGID_12_);">
				<defs>
					<rect id="SVGID_13_" y="0" width="218" height="134"/>
				</defs>
				<clipPath id="SVGID_14_">
					<use xlink:href="#SVGID_13_"  style="overflow:visible;"/>
				</clipPath>
				<rect x="94" y="59" style="clip-path:url(#SVGID_14_);fill:#222323;" width="41" height="51"/>
			</g>
		</g>
		<g style="clip-path:url(#SVGID_2_);">
			<defs>
				<path id="SVGID_15_" d="M0,34.6c0.3,3.1,0.4,5.4,0.7,7.8C0.9,43,1.2,43.8,1.7,44C3.1,44.8,4.6,45.4,6,46c0.3,0.1,0.9,0,1.1-0.3
					C8,44.8,9,44,8.8,42.5c-0.2-1.2-0.2-2.5-0.3-3.8c-0.1-3-0.2-6-0.3-8.9c0-0.3,0.6-0.9,0.9-0.9c2.2-0.2,4.5-0.4,6.8-0.3
					c2,0.1,3-0.8,4-2.5c0.7-1.2,1.5-1.9,1.2-3.5c-0.2-0.9-0.4-1.3-1-1.8c-1.3-1-2.7-0.9-4.1-1c-2.2-0.3-4.5-0.4-6.7-0.4
					c-0.8,0-1.1-0.1-1.1-0.9c0-1.4,0-2.9,0-4.3c0-0.3,0.3-0.8,0.6-1c4-2.7,8.3-2.3,12.8-1.7c1,0.2,2.2,0.4,2.9,0
					c2.2-1.2,2.9-3.2,2.2-5.7c-0.2-0.9-0.8-1.9-1.5-2.2c-1.5-0.7-3.2-1-4.8-1.2c-4.2-0.6-8.3-0.9-12.2,1.3C7.5,4.1,6.8,4.5,5.9,3.9
					C4.6,3.1,3.2,3.2,2.3,4.5C1.6,5.4,1,6.7,0.9,7.9c-0.4,5.8-0.6,11.7-0.8,17.5C-0.1,28.7,0,32,0,34.6"/>
			</defs>
			<clipPath id="SVGID_16_">
				<use xlink:href="#SVGID_15_"  style="overflow:visible;"/>
			</clipPath>
			<g style="clip-path:url(#SVGID_16_);">
				<defs>
					<rect id="SVGID_17_" y="0" width="218" height="134"/>
				</defs>
				<clipPath id="SVGID_18_">
					<use xlink:href="#SVGID_17_"  style="overflow:visible;"/>
				</clipPath>
				<rect x="-5" y="-3" style="clip-path:url(#SVGID_18_);fill:#222323;" width="37" height="54"/>
			</g>
		</g>
		<g style="clip-path:url(#SVGID_2_);">
			<defs>
				<path id="SVGID_19_" d="M139,87.7c0.7,2.7,1.3,5.2,2.1,7.7c1.3,4.3,3.9,7.7,8,9.9c0.8,0.5,1.9,0.9,2.8,0.8
					c3.5-0.4,6.5-1.7,9-4.4c1.8-2,2.1-3.9,0.7-6.2c-0.8-1.4-2.7-2.2-4.2-1.5c-1.3,0.7-2.5,1.6-3.8,2.4c-1.7,1.1-2.3,0.9-3.2-0.8
					c-2.7-5.2-2.6-10.3,0.2-15.4c1.9-3.4,3.8-6.8,6.9-9.2c0.8-0.7,2.1-1.1,3.1-1.1c2.2,0,3.2-0.8,3.3-3c0.1-2.3-4.3-5.1-6.2-4.7
					c-4.4,1.1-7.7,3.6-10.5,6.9c-2.6,3-4.3,6.6-5.7,10.2C140.4,81.9,139.8,84.9,139,87.7"/>
			</defs>
			<clipPath id="SVGID_20_">
				<use xlink:href="#SVGID_19_"  style="overflow:visible;"/>
			</clipPath>
			<g style="clip-path:url(#SVGID_20_);">
				<defs>
					<rect id="SVGID_21_" y="0" width="218" height="134"/>
				</defs>
				<clipPath id="SVGID_22_">
					<use xlink:href="#SVGID_21_"  style="overflow:visible;"/>
				</clipPath>
				<rect x="134" y="57" style="clip-path:url(#SVGID_22_);fill:#222323;" width="35" height="54"/>
			</g>
		</g>
		<g style="clip-path:url(#SVGID_2_);">
			<defs>
				<path id="SVGID_23_" d="M171.3,43c1.4-0.2,2.8-0.6,4.2-0.6c1.2-0.1,1.9-0.8,2.5-1.7c0.3-0.4,0.7-0.8,0.8-1.3
					c0.3-0.7,0.8-1.6,0.6-2.3c-0.2-0.8-0.8-1.8-1.5-2.1c-1.3-0.5-2.7-0.6-4.1-0.7c-0.8-0.1-1.6,0-2.4-0.1c-3-0.2-3.9-1.7-3.1-4.7
					c0.8-3,1.9-5.9,3.3-8.6c1.2-2.5,2.9-4.8,4.7-7c0.8-1,2.3-1.3,3.4-2.1c2.1-1.5,1.9-4.7-0.3-6.1c-0.6-0.4-1.5-0.9-2.2-0.8
					c-4.3,1.1-7.7,3.4-10.3,7c-3.1,4.3-5.3,8.9-6.7,14c-0.5,1.7-0.7,3.4-1,5.1c-0.5,3.4,1.3,5.7,3.5,8.1
					C165,41.7,167.9,42.5,171.3,43"/>
			</defs>
			<clipPath id="SVGID_24_">
				<use xlink:href="#SVGID_23_"  style="overflow:visible;"/>
			</clipPath>
			<g style="clip-path:url(#SVGID_24_);">
				<defs>
					<rect id="SVGID_25_" y="0" width="218" height="134"/>
				</defs>
				<clipPath id="SVGID_26_">
					<use xlink:href="#SVGID_25_"  style="overflow:visible;"/>
				</clipPath>
				<rect x="154" y="0" style="clip-path:url(#SVGID_26_);fill:#222323;" width="32" height="48"/>
			</g>
		</g>
		<g style="clip-path:url(#SVGID_2_);">
			<defs>
				<path id="SVGID_27_" d="M138.2,29.6c-0.1,0-0.2,0-0.3,0.1c-1.1-1.5-2.2-3-3.2-4.5c-1.6-2.3-3.1-4.8-4.8-7
					c-1.7-2.2-2.2-5.1-4.1-7.1c-0.1-0.1-0.1-0.4-0.1-0.5c-0.6-1-1-2.1-1.8-2.9c-1.5-1.4-4.6-0.3-5.3,1.8c-0.5,1.6-1,3.3-1.2,4.9
					c-0.5,3.6-1,7.3-1.1,10.9c-0.2,5.7-0.2,11.4-0.2,17c0,0.6,0.5,1.2,0.9,1.8c1,1.4,2.6,0.9,4,1.1c0.7,0.1,1.8,0,1.9-0.3
					c0.6-1.3,0.9-2.8,1.2-4.2c0.1-0.6-0.2-1.3-0.2-2c0.1-3.6,0.1-7.3,0.2-11c0-0.4,0.3-0.7,0.5-1.3c1.6,2.3,3,4.3,4.5,6.2
					c2.5,3.5,5,7,9.3,8.8c1.1,0.5,3.1,0,4-0.9c0.6-0.6,1.3-1.2,2-1.6c1.2-0.7,2.2-1.3,2.2-2.9c0-4.2,0.3-8.4,0.3-12.6
					c0-3.7-0.1-7.5-0.3-11.2c-0.1-1.3-0.5-2.5-0.9-3.7c-0.2-0.6-0.6-1.3-1-1.8c-0.6-0.6-1.4-1.4-2.1-1.4c-2.2,0.1-3.9,1.8-4.1,4
					c-0.2,2.5-0.2,4.9-0.2,7.4c0,3.4,0.1,6.9,0.2,10.3C138.4,27.7,138.3,28.6,138.2,29.6"/>
			</defs>
			<clipPath id="SVGID_28_">
				<use xlink:href="#SVGID_27_"  style="overflow:visible;"/>
			</clipPath>
			<g style="clip-path:url(#SVGID_28_);">
				<defs>
					<rect id="SVGID_29_" y="0" width="218" height="134"/>
				</defs>
				<clipPath id="SVGID_30_">
					<use xlink:href="#SVGID_29_"  style="overflow:visible;"/>
				</clipPath>
				<rect x="111" y="0" style="clip-path:url(#SVGID_30_);fill:#222323;" width="41" height="50"/>
			</g>
		</g>
		<g style="clip-path:url(#SVGID_2_);">
			<defs>
				<path id="SVGID_31_" d="M120.1,84.2c-0.1,0-0.3,0.1-0.4,0.1c-0.2-0.3-0.4-0.5-0.6-0.8c-1.2-2.5-2.4-5-3.7-7.5
					c-0.7-1.4-1.1-3-2.1-4.1c-1.5-1.7-3.3-3.1-5.1-4.5c-0.9-0.8-1.9-0.6-3,0.2c-1.2,0.9-1.2,2.1-1.6,3.2c-2.8,8.4-4.1,17.1-4.6,25.9
					c-0.1,2.3,0.5,4.6,0.9,6.9c0.1,0.5,0.9,1.2,1.2,1.2c1.3-0.3,2.3,0.6,3.7,0.3c2.2-0.4,2.5-0.2,2.4-2.5c-0.1-2.4-0.3-4.8-0.1-7.2
					c0.2-2.9,0.6-5.7,1-8.5c0.2-1.5,0.6-2.9,0.9-4.4c0.5,0.3,0.7,0.6,0.8,0.9c1.8,3.6,3.5,7.3,5.5,10.8c1.1,1.9,2,3.9,4.3,5.1
					c1.1,0.6,1.6,2,3.4,1.8c0.5-0.1,1.2,0.7,2.1,0.3c0.7-0.3,2,0,2.4-0.5c0.4-0.5,0.2-1.6,0.2-2.5c0.2-2.8,0.5-5.6,0.5-8.4
					c-0.2-6.6,1.2-13.1,1.8-19.7c0.3-3.5-1.1-4.9-3.7-6.1c-0.2-0.1-0.6-0.1-0.8,0c-1,0.8-2.3,1.5-2.7,2.6
					c-1.8,5.2-2.6,10.6-2.6,16.1C120.2,83.3,120.1,83.7,120.1,84.2"/>
			</defs>
			<clipPath id="SVGID_32_">
				<use xlink:href="#SVGID_31_"  style="overflow:visible;"/>
			</clipPath>
			<g style="clip-path:url(#SVGID_32_);">
				<defs>
					<rect id="SVGID_33_" y="0" width="218" height="134"/>
				</defs>
				<clipPath id="SVGID_34_">
					<use xlink:href="#SVGID_33_"  style="overflow:visible;"/>
				</clipPath>
				<rect x="94" y="59" style="clip-path:url(#SVGID_34_);fill:#222323;" width="41" height="51"/>
			</g>
		</g>
		<g style="clip-path:url(#SVGID_2_);">
			<defs>
				<path id="SVGID_35_" d="M90.9,98.5c-0.6-3.1-1.5-6.1-2.1-9.3c-0.8-4.7-1.5-9.5-2.2-14.2c-0.5-3.6-0.9-7.3-1.5-10.9
					c-0.5-2.9-2.3-4.7-5.3-5.1c-1-0.1-1.9,0-2.5,1c-1,1.5-2.1,3-3,4.6c-2.2,4.1-4.3,8.3-6.4,12.5c-1.1,2.2-2.1,4.4-3.1,6.6
					c-0.7,1.6-1.4,3.3-2.1,4.9c-1.5,3.4-2.9,6.8-4.4,10.2c-0.8,2,0.6,4.6,2.2,5.1c1.8,0.7,5.8-0.7,6.7-3.8c0.6-2.1,1.6-4.2,2.5-6.2
					c0.1-0.3,0.6-0.5,1-0.6c1.8-0.5,3.6-0.8,5.3-1.4c1.5-0.5,2.8-1.3,4.4-2c0.5,2.2,0.7,4.2,1.4,6.2c0.8,2.4,0.3,5.6,4,6.4
					c1.9,0.4,3.6,0.4,4.8-1.1C91.1,100.8,91.1,99.5,90.9,98.5 M73.5,83.4c1.4-3.2,2.8-6.2,4.1-9.1c0.2,0,0.3,0.1,0.5,0.1
					c0.4,2.6,0.8,5.1,1.2,7.9C77.5,82.6,75.7,82.9,73.5,83.4"/>
			</defs>
			<clipPath id="SVGID_36_">
				<use xlink:href="#SVGID_35_"  style="overflow:visible;"/>
			</clipPath>
			<g style="clip-path:url(#SVGID_36_);">
				<defs>
					<rect id="SVGID_37_" y="0" width="218" height="134"/>
				</defs>
				<clipPath id="SVGID_38_">
					<use xlink:href="#SVGID_37_"  style="overflow:visible;"/>
				</clipPath>
				<rect x="53" y="54" style="clip-path:url(#SVGID_38_);fill:#222323;" width="43" height="55"/>
			</g>
		</g>
		<g style="clip-path:url(#SVGID_2_);">
			<defs>
				<path id="SVGID_39_" d="M0,34.6c0.3,3.1,0.4,5.4,0.7,7.8C0.9,43,1.2,43.8,1.7,44C3.1,44.8,4.6,45.4,6,46c0.3,0.1,0.9,0,1.1-0.3
					C8,44.8,9,44,8.8,42.5c-0.2-1.2-0.2-2.5-0.3-3.8c-0.1-3-0.2-6-0.3-8.9c0-0.3,0.6-0.9,0.9-0.9c2.2-0.2,4.5-0.4,6.8-0.3
					c2,0.1,3-0.8,4-2.5c0.7-1.2,1.5-1.9,1.2-3.5c-0.2-0.9-0.4-1.3-1-1.8c-1.3-1-2.7-0.9-4.1-1c-2.2-0.3-4.5-0.4-6.7-0.4
					c-0.8,0-1.1-0.1-1.1-0.9c0-1.4,0-2.9,0-4.3c0-0.3,0.3-0.8,0.6-1c4-2.7,8.3-2.3,12.8-1.7c1,0.2,2.2,0.4,2.9,0
					c2.2-1.2,2.9-3.2,2.2-5.7c-0.2-0.9-0.8-1.9-1.5-2.2c-1.5-0.7-3.2-1-4.8-1.2c-4.2-0.6-8.3-0.9-12.2,1.3C7.5,4.1,6.8,4.5,5.9,3.9
					C4.6,3.1,3.2,3.2,2.3,4.5C1.6,5.4,1,6.7,0.9,7.9c-0.4,5.8-0.6,11.7-0.8,17.5C-0.1,28.7,0,32,0,34.6"/>
			</defs>
			<clipPath id="SVGID_40_">
				<use xlink:href="#SVGID_39_"  style="overflow:visible;"/>
			</clipPath>
			<g style="clip-path:url(#SVGID_40_);">
				<defs>
					<rect id="SVGID_41_" y="0" width="218" height="134"/>
				</defs>
				<clipPath id="SVGID_42_">
					<use xlink:href="#SVGID_41_"  style="overflow:visible;"/>
				</clipPath>
				<rect x="-5" y="-3" style="clip-path:url(#SVGID_42_);fill:#222323;" width="37" height="54"/>
			</g>
		</g>
		<g style="clip-path:url(#SVGID_2_);">
			<defs>
				<path id="SVGID_43_" d="M139,87.7c0.7,2.7,1.3,5.2,2.1,7.7c1.3,4.3,3.9,7.7,8,9.9c0.8,0.5,1.9,0.9,2.8,0.8
					c3.5-0.4,6.5-1.7,9-4.4c1.8-2,2.1-3.9,0.7-6.2c-0.8-1.4-2.7-2.2-4.2-1.5c-1.3,0.7-2.5,1.6-3.8,2.4c-1.7,1.1-2.3,0.9-3.2-0.8
					c-2.7-5.2-2.6-10.3,0.2-15.4c1.9-3.4,3.8-6.8,6.9-9.2c0.8-0.7,2.1-1.1,3.1-1.1c2.2,0,3.2-0.8,3.3-3c0.1-2.3-4.3-5.1-6.2-4.7
					c-4.4,1.1-7.7,3.6-10.5,6.9c-2.6,3-4.3,6.6-5.7,10.2C140.4,81.9,139.8,84.9,139,87.7"/>
			</defs>
			<clipPath id="SVGID_44_">
				<use xlink:href="#SVGID_43_"  style="overflow:visible;"/>
			</clipPath>
			<g style="clip-path:url(#SVGID_44_);">
				<defs>
					<rect id="SVGID_45_" y="0" width="218" height="134"/>
				</defs>
				<clipPath id="SVGID_46_">
					<use xlink:href="#SVGID_45_"  style="overflow:visible;"/>
				</clipPath>
				<rect x="134" y="57" style="clip-path:url(#SVGID_46_);fill:#222323;" width="35" height="54"/>
			</g>
		</g>
		<g style="clip-path:url(#SVGID_2_);">
			<defs>
				<path id="SVGID_47_" d="M171.3,43c1.4-0.2,2.8-0.6,4.2-0.6c1.2-0.1,1.9-0.8,2.5-1.7c0.3-0.4,0.7-0.8,0.8-1.3
					c0.3-0.7,0.8-1.6,0.6-2.3c-0.2-0.8-0.8-1.8-1.5-2.1c-1.3-0.5-2.7-0.6-4.1-0.7c-0.8-0.1-1.6,0-2.4-0.1c-3-0.2-3.9-1.7-3.1-4.7
					c0.8-3,1.9-5.9,3.3-8.6c1.2-2.5,2.9-4.8,4.7-7c0.8-1,2.3-1.3,3.4-2.1c2.1-1.5,1.9-4.7-0.3-6.1c-0.6-0.4-1.5-0.9-2.2-0.8
					c-4.3,1.1-7.7,3.4-10.3,7c-3.1,4.3-5.3,8.9-6.7,14c-0.5,1.7-0.7,3.4-1,5.1c-0.5,3.4,1.3,5.7,3.5,8.1
					C165,41.7,167.9,42.5,171.3,43"/>
			</defs>
			<clipPath id="SVGID_48_">
				<use xlink:href="#SVGID_47_"  style="overflow:visible;"/>
			</clipPath>
			<g style="clip-path:url(#SVGID_48_);">
				<defs>
					<rect id="SVGID_49_" y="0" width="218" height="134"/>
				</defs>
				<clipPath id="SVGID_50_">
					<use xlink:href="#SVGID_49_"  style="overflow:visible;"/>
				</clipPath>
				<rect x="154" y="0" style="clip-path:url(#SVGID_50_);fill:#222323;" width="32" height="48"/>
			</g>
		</g>
		<g style="clip-path:url(#SVGID_2_);">
			<defs>
				<path id="SVGID_51_" d="M60.8,33.1c-2.3-2.5-4.6-4.9-6.8-7.5c-0.3-0.3-0.3-1.3-0.1-1.6c1.8-1.9,2.2-4.3,2.6-6.5
					c0.6-3.8,0.3-7.6-1.3-11.2c-1-2.3-4.5-4-7-3.1C47,3.7,45.9,4.3,44.9,5c-3.2,2.1-5.8,4.8-6.4,8.6c-0.7,5.1-1.1,10.2-1.4,15.4
					c-0.2,3.3-0.1,6.7-0.1,10.1c0,2-0.1,4,2,5c1,0.5,2.4,1.1,3.3,0.8c1.1-0.3,2.6-0.8,2.7-2.6c0-3,0.1-6,0.1-9c0-1.4,0-2.9,0-4.3
					c0.2,0,0.3-0.1,0.5-0.1c0.2,0.2,0.5,0.3,0.7,0.5c1,1.1,1.9,2.2,2.9,3.3c2.3,2.6,4.5,5.2,8,6.5c1.7,0.6,4-0.2,4.7-1.9
					C62.3,36.4,61.6,34,60.8,33.1 M45.9,21.7c-0.2-3.4-0.2-6.6,2.5-9.2C49.7,15.2,49,20.5,45.9,21.7"/>
			</defs>
			<clipPath id="SVGID_52_">
				<use xlink:href="#SVGID_51_"  style="overflow:visible;"/>
			</clipPath>
			<g style="clip-path:url(#SVGID_52_);">
				<defs>
					<rect id="SVGID_53_" y="0" width="218" height="134"/>
				</defs>
				<clipPath id="SVGID_54_">
					<use xlink:href="#SVGID_53_"  style="overflow:visible;"/>
				</clipPath>
				<rect x="32" y="-2" style="clip-path:url(#SVGID_54_);fill:#222323;" width="35" height="52"/>
			</g>
		</g>
		<g style="clip-path:url(#SVGID_2_);">
			<defs>
				<path id="SVGID_55_" d="M105,37c-0.1-0.3-0.1-0.5-0.2-0.8c-1.1-3.4-2.2-6.7-3.3-10.1c-1.1-3.5-2.1-7.1-3.1-10.7
					c-1.1-4.1-2.1-8.2-3.4-12.3c-0.9-2.9-3.2-3.9-5.6-2.5c-0.9,0.5-2,0.8-2.5,2.2c-1.5,4.1-3.3,8-5,12c-2,4.7-4,9.4-5.9,14.1
					c-1.4,3.3-2.8,6.5-3.9,9.8c-0.6,1.8,1.8,4.3,3.6,4.2c2-0.1,3.1-1.4,3.9-2.9c0.9-1.8,1.7-3.8,2.4-5.7c0.4-1,0.8-0.9,1.6-0.6
					c0.6,0.3,1.4,0.1,2.1,0.3c1.2,0.2,2-0.5,3-1c1.2-0.6,2.5-1.1,3.7-1.7c0.8-0.4,1.2-0.5,1.4,0.5c0.2,1.1,0.5,2.1,0.8,3.1
					c0.8,2.4,1.3,5.1,3.8,6.4c0.2,0.1,0.4,0.1,0.6,0.1c0.3,0,0.6,0,0.8,0.1c1.5,1.7,2.7,0.1,3.9-0.5c0.5-0.2,0.8-1.3,1-2
					c0.1-0.7,0-1.5-0.1-2.2C104.9,37,104.9,37,105,37 M91.2,24.3c-1.6,0.3-3.2,0.4-5.1,0.7c1.2-3.1,2.3-5.8,3.4-8.6
					c0.1,0,0.2,0.1,0.3,0.1c0.6,2.3,1.2,4.6,1.7,6.9C91.7,23.6,91.4,24.2,91.2,24.3"/>
			</defs>
			<clipPath id="SVGID_56_">
				<use xlink:href="#SVGID_55_"  style="overflow:visible;"/>
			</clipPath>
			<g style="clip-path:url(#SVGID_56_);">
				<defs>
					<rect id="SVGID_57_" y="0" width="218" height="134"/>
				</defs>
				<clipPath id="SVGID_58_">
					<use xlink:href="#SVGID_57_"  style="overflow:visible;"/>
				</clipPath>
				<rect x="67" y="-5" style="clip-path:url(#SVGID_58_);fill:#222323;" width="43" height="53"/>
			</g>
		</g>
		<g style="clip-path:url(#SVGID_2_);">
			<defs>
				<path id="SVGID_59_" d="M217.5,18.2c-0.9-3.9-3-7-6.4-9.3c-2.8-1.8-5.7-2.6-9.2-1.5c-1.9,0.6-3.5,1.3-4.4,2.9
					c-1.6,2.8-3,5.6-4.3,8.5c-1.7,3.9-2.6,7.9-2.1,12.2c0.5,4,2.8,6.8,5.8,9.1c1.3,1,2.7,2,4.6,1.8c1.2-0.2,2.4-0.2,3.5-0.6
					c4-1.8,7.3-4.3,9.5-8.1C217.3,28.5,218.8,23.7,217.5,18.2 M207.9,27.2c-0.7,1.9-1.9,3.5-3.6,4.6c-0.8,0.5-1.9,0.7-2.9,0.8
					c-0.3,0-0.8-0.5-0.9-0.9c-0.4-1.4-0.6-2.8-0.9-4.3c0.2-4.1,1.9-7.7,3.6-11.2c0.4-0.8,0.9-0.9,1.6-0.3c0.2,0.2,0.4,0.4,0.6,0.4
					c1.8,0,2.3,1.3,2.8,2.5C209.3,21.7,208.9,24.5,207.9,27.2"/>
			</defs>
			<clipPath id="SVGID_60_">
				<use xlink:href="#SVGID_59_"  style="overflow:visible;"/>
			</clipPath>
			<g style="clip-path:url(#SVGID_60_);">
				<defs>
					<rect id="SVGID_61_" y="0" width="218" height="134"/>
				</defs>
				<clipPath id="SVGID_62_">
					<use xlink:href="#SVGID_61_"  style="overflow:visible;"/>
				</clipPath>
				<rect x="186" y="2" style="clip-path:url(#SVGID_62_);fill:#222323;" width="37" height="45"/>
			</g>
		</g>
		<g style="clip-path:url(#SVGID_2_);">
			<defs>
				<path id="SVGID_63_" d="M205.6,92.2c-1.2-4.2-2.1-8.4-2.4-12.8c-0.3-3.9-0.7-7.7-1.7-11.5c-1-3.5-2.6-6.5-6.2-7.9
					c-1,0.9-2.4,1.6-3.2,2.7c-2,2.8-4,5.6-5.5,8.7c-2.1,4.3-3.8,8.9-5.7,13.3c-1.1,2.5-2.2,5-3.5,7.5c-1.5,3-3.2,5.9-4.9,8.8
					c-0.7,1.2-0.6,2.4-0.3,3.7c0.4,1.4,1.2,2.1,2.7,2.3c1.9,0.3,4.3-0.3,5.2-2.1c1.6-3,3.2-6,4.7-9c0.3-0.7,0.7-0.9,1.4-0.8
					c1,0.1,2,0.3,2.9,0.3c2.6-0.1,5.3-0.2,7.9-0.3c0.4,0,1.1,0.4,1.3,0.7c0.5,1.7,0.9,3.5,1.4,5.3c0.3,1.3,1.5,1.6,2.2,0.9
					c1.2,0.2,2.2,0.5,3,0.3c1-0.2,1.7-0.9,1.9-2.2C207.3,97.3,206.4,94.8,205.6,92.2 M195,86.3c-1.5,0.1-2.9,0.2-4.4,0.3
					c-0.4,0-0.7-0.2-1.3-0.4c1.6-3.8,3.2-7.5,4.8-11.2c0.2,0,0.3,0.1,0.5,0.1c0.1,0.9,0.2,1.8,0.3,2.7c0.3,2.4,0.6,4.8,0.9,7.2
					C196,85.9,195.9,86.3,195,86.3"/>
			</defs>
			<clipPath id="SVGID_64_">
				<use xlink:href="#SVGID_63_"  style="overflow:visible;"/>
			</clipPath>
			<g style="clip-path:url(#SVGID_64_);">
				<defs>
					<rect id="SVGID_65_" y="0" width="218" height="134"/>
				</defs>
				<clipPath id="SVGID_66_">
					<use xlink:href="#SVGID_65_"  style="overflow:visible;"/>
				</clipPath>
				<rect x="167" y="55" style="clip-path:url(#SVGID_66_);fill:#222323;" width="45" height="57"/>
			</g>
		</g>
		<g style="clip-path:url(#SVGID_2_);">
			<defs>
				<path id="SVGID_67_" d="M177.8,123.4c-0.5,0.3-1,0.7-1.4,1.1c-1.7,1.9-3.4,3.9-5.1,5.8c-0.4,0.5-0.9,1-1.2,1.6
					c-0.5,0.8,0,1.3,0.8,1.3c0.5,0,1.1-0.5,1.6-0.8c0.4-0.3,0.6-0.9,1-1c1.4-0.3,2.8-0.4,4.4-0.6c0,0.7-0.1,1.3,0,1.9
					c0.1,0.5,0.6,0.9,0.8,1.3c0.5-0.4,1.3-0.7,1.4-1.1c0.4-2.7,0.7-5.4,0.7-8.1C181,123.1,179.3,122.5,177.8,123.4 M178.3,128.7
					c-0.8,0.1-1.6,0.2-2.4,0.3c-0.1-0.1-0.2-0.2-0.2-0.3c0.8-1,1.6-1.9,2.4-2.9c0.1,0.1,0.3,0.1,0.4,0.2
					C178.4,126.9,178.3,127.7,178.3,128.7"/>
			</defs>
			<clipPath id="SVGID_68_">
				<use xlink:href="#SVGID_67_"  style="overflow:visible;"/>
			</clipPath>
			<g style="clip-path:url(#SVGID_68_);">
				<defs>
					<rect id="SVGID_69_" y="0" width="218" height="134"/>
				</defs>
				<clipPath id="SVGID_70_">
					<use xlink:href="#SVGID_69_"  style="overflow:visible;"/>
				</clipPath>
				<rect x="165" y="118" style="clip-path:url(#SVGID_70_);fill:#222323;" width="21" height="21"/>
			</g>
		</g>
		<g style="clip-path:url(#SVGID_2_);">
			<defs>
				<path id="SVGID_71_" d="M118.6,129.7c0.1,0.8,0,1.5,0.3,2.1c0.3,0.5,0.9,1.2,1.5,1.3c0.9,0.1,1.1-0.7,1.2-1.5
					c0.1-2.1,0.2-4.2,0.4-6.3c0.2-1.6,0-1.9-2-2.1c-0.3,0.8-0.7,1.6-0.8,2.4c-0.2,1.5-1.2,1.8-2.4,2.1c0.1-1.1,0.2-2.1,0.2-3.1
					c0-0.9-0.5-1.4-1.5-1.3c-0.4,0.1-1.1,0.4-1.2,0.6c-0.5,2.5-1,5-1.3,7.6c-0.1,0.4,0.6,1.2,1.1,1.4c0.4,0.1,1.4-0.4,1.4-0.7
					C115.7,130.2,117.1,130.1,118.6,129.7"/>
			</defs>
			<clipPath id="SVGID_72_">
				<use xlink:href="#SVGID_71_"  style="overflow:visible;"/>
			</clipPath>
			<g style="clip-path:url(#SVGID_72_);">
				<defs>
					<rect id="SVGID_73_" y="0" width="218" height="134"/>
				</defs>
				<clipPath id="SVGID_74_">
					<use xlink:href="#SVGID_73_"  style="overflow:visible;"/>
				</clipPath>
				<rect x="108" y="118" style="clip-path:url(#SVGID_74_);fill:#222323;" width="19" height="20"/>
			</g>
		</g>
		<g style="clip-path:url(#SVGID_2_);">
			<defs>
				<rect id="SVGID_75_" x="132.1" y="121.8" width="8.3" height="12.2"/>
			</defs>
			<clipPath id="SVGID_76_">
				<use xlink:href="#SVGID_75_"  style="overflow:visible;"/>
			</clipPath>
			<g style="clip-path:url(#SVGID_76_);">
				<defs>
					<rect id="SVGID_77_" y="0" width="218" height="134"/>
				</defs>
				<clipPath id="SVGID_78_">
					<use xlink:href="#SVGID_77_"  style="overflow:visible;"/>
				</clipPath>
				<g style="clip-path:url(#SVGID_78_);enable-background:new    ;">
					<g>
						<defs>
							<rect id="SVGID_79_" x="132" y="121" width="9" height="13"/>
						</defs>
						<clipPath id="SVGID_80_">
							<use xlink:href="#SVGID_79_"  style="overflow:visible;"/>
						</clipPath>
						<g style="clip-path:url(#SVGID_80_);">
							<defs>
								<path id="SVGID_81_" d="M140.2,123.2c-0.2-0.5-0.8-1.1-1.4-1.3c-1.8-0.6-4.6,0.4-5.7,1.9c-0.3,0.4-0.4,1-0.4,1.6
									c-0.1,1.2,0.1,2.4,0,3.7c-0.1,1-0.4,2.1-0.6,3.1c-0.1,0.8,0.1,1.6,1,1.7c1,0.1,1.5-0.4,1.6-1.4c0.2-1.2,0.6-2.3,0.8-3.3
									c0.9-0.1,1.5-0.1,2-0.3C139.3,128.3,140.9,124.9,140.2,123.2 M136,127.1c-0.6-2.5-0.4-2.8,1.7-3.1
									C137.8,125.7,137.2,126.7,136,127.1"/>
							</defs>
							<clipPath id="SVGID_82_">
								<use xlink:href="#SVGID_81_"  style="overflow:visible;"/>
							</clipPath>
							<g style="clip-path:url(#SVGID_82_);">
								<defs>
									<rect id="SVGID_83_" x="132" y="121" width="9" height="13"/>
								</defs>
								<clipPath id="SVGID_84_">
									<use xlink:href="#SVGID_83_"  style="overflow:visible;"/>
								</clipPath>
								<rect x="127.1" y="116.8" style="clip-path:url(#SVGID_84_);fill:#222323;" width="18.3" height="22.2"/>
							</g>
						</g>
					</g>
				</g>
			</g>
		</g>
		<g style="clip-path:url(#SVGID_2_);">
			<defs>
				<path id="SVGID_85_" d="M68.2,128.6c-0.4-0.2-0.9-0.3-1.5-0.4c0.4-0.6,0.7-1.1,0.9-1.5c0.7-1.3,0.3-3.5-0.8-4.2
					c-1.2-0.8-2.9-0.4-3.9,0.9c-1.9,2.3-1.8,5.1-1.8,7.8c0,0.3,0.9,0.9,1.4,0.9c0.4,0,0.9-0.6,1.1-1c0.2-0.5,0.1-1.1,0.2-1.8
					c0.5,0.3,0.7,0.6,1,0.7c1.1,0.5,2.3,1.2,3.5,0.5c0.3-0.2,0.7-0.6,0.7-0.9C69,129.2,68.5,128.8,68.2,128.6 M63.7,127.6
					c0.5-1.3,0.8-2.2,1.1-3.1C65.6,125.8,65.3,126.7,63.7,127.6"/>
			</defs>
			<clipPath id="SVGID_86_">
				<use xlink:href="#SVGID_85_"  style="overflow:visible;"/>
			</clipPath>
			<g style="clip-path:url(#SVGID_86_);">
				<defs>
					<rect id="SVGID_87_" y="0" width="218" height="134"/>
				</defs>
				<clipPath id="SVGID_88_">
					<use xlink:href="#SVGID_87_"  style="overflow:visible;"/>
				</clipPath>
				<rect x="56" y="117" style="clip-path:url(#SVGID_88_);fill:#222323;" width="18" height="20"/>
			</g>
		</g>
		<g style="clip-path:url(#SVGID_2_);">
			<defs>
				<path id="SVGID_89_" d="M79,122.1c-2.1-0.4-3.5,0.2-3.9,1.8c-0.4,1.6-0.7,3.3-1.1,5.4c0.3,0.5,0.6,1.6,1.4,2
					c1,0.5,2.4,1.2,3.5,0.1c1.6-1.7,2.9-3.5,3.2-5.8C82.2,124,80.7,122.4,79,122.1 M77.2,129.5c0-1.8,0-3.2,0-4.5
					c0-0.3,0.4-0.9,0.7-0.9c0.4,0,0.8,0.3,1.1,0.5c0.2,0.2,0.3,0.6,0.3,0.9C79.2,127,78.4,128.1,77.2,129.5"/>
			</defs>
			<clipPath id="SVGID_90_">
				<use xlink:href="#SVGID_89_"  style="overflow:visible;"/>
			</clipPath>
			<g style="clip-path:url(#SVGID_90_);">
				<defs>
					<rect id="SVGID_91_" y="0" width="218" height="134"/>
				</defs>
				<clipPath id="SVGID_92_">
					<use xlink:href="#SVGID_91_"  style="overflow:visible;"/>
				</clipPath>
				<rect x="69" y="117" style="clip-path:url(#SVGID_92_);fill:#222323;" width="18" height="20"/>
			</g>
		</g>
		<g style="clip-path:url(#SVGID_2_);">
			<defs>
				<path id="SVGID_93_" d="M105.1,130c0.2-2.3,1.3-4,3.1-5.2c0.3-0.2,0.8-0.8,0.7-1.1c-0.1-0.3-0.7-0.7-1.1-0.7
					c-0.6,0-1.4,0.1-1.8,0.5c-0.8,0.6-1.6,1.4-2.1,2.2c-0.7,1-1.3,2.1-1.7,3.3c-0.6,1.8,0.1,3.4,1.5,3.9c1.3,0.5,3.1-0.3,3.8-1.9
					c0.4-0.9,0.8-1.7,1.8-2.1c0.6-0.2,1-0.9,0.2-1.4c-1.3-0.9-3.5,0.1-3.9,1.6C105.6,129.4,105.3,129.7,105.1,130"/>
			</defs>
			<clipPath id="SVGID_94_">
				<use xlink:href="#SVGID_93_"  style="overflow:visible;"/>
			</clipPath>
			<g style="clip-path:url(#SVGID_94_);">
				<defs>
					<rect id="SVGID_95_" y="0" width="218" height="134"/>
				</defs>
				<clipPath id="SVGID_96_">
					<use xlink:href="#SVGID_95_"  style="overflow:visible;"/>
				</clipPath>
				<rect x="97" y="118" style="clip-path:url(#SVGID_96_);fill:#222323;" width="18" height="20"/>
			</g>
		</g>
		<g style="clip-path:url(#SVGID_2_);">
			<defs>
				<path id="SVGID_97_" d="M163.9,125.1c-0.1,0.4-0.2,0.6-0.2,0.7c-1,1.5-2.1,2.9-3,4.5c-0.8,1.4,0,2.6,1.7,2.7
					c2.1,0.1,3.1-1.5,4.5-2.6c0.1-0.1,0-0.7-0.1-0.9c-0.2-0.2-0.6-0.3-1-0.3c-0.5,0.1-1,0.3-1.8,0.6c0.2-0.4,0.2-0.6,0.3-0.7
					c0.6-0.9,1.3-1.8,1.9-2.7c1.4-1.7,1-3-1.2-3.3c-1.5-0.2-3,0.1-4.5,0.3c-0.8,0.1-1.7,0.5-1.5,1.5c0.2,0.9,1.2,1.1,2.1,0.8
					C162,125.5,162.8,125.3,163.9,125.1"/>
			</defs>
			<clipPath id="SVGID_98_">
				<use xlink:href="#SVGID_97_"  style="overflow:visible;"/>
			</clipPath>
			<g style="clip-path:url(#SVGID_98_);">
				<defs>
					<rect id="SVGID_99_" y="0" width="218" height="134"/>
				</defs>
				<clipPath id="SVGID_100_">
					<use xlink:href="#SVGID_99_"  style="overflow:visible;"/>
				</clipPath>
				<rect x="154" y="118" style="clip-path:url(#SVGID_100_);fill:#222323;" width="18" height="20"/>
			</g>
		</g>
		<g style="clip-path:url(#SVGID_2_);">
			<defs>
				<path id="SVGID_101_" d="M44.7,125c-0.7,0.3-1.6,0.4-1.9,0.9c-1.1,1.5-1.9,3.3-1.8,5.2c0.1,2.1,1.9,3.4,3.9,2.6
					c2-0.8,2.5-2.7,2.9-4.6C48.4,126.5,47.5,125.2,44.7,125 M43.8,131.3c-0.3-1.6,0.2-3,1.6-4.3C45.7,128.9,44.9,130.1,43.8,131.3"
					/>
			</defs>
			<clipPath id="SVGID_102_">
				<use xlink:href="#SVGID_101_"  style="overflow:visible;"/>
			</clipPath>
			<g style="clip-path:url(#SVGID_102_);">
				<defs>
					<rect id="SVGID_103_" y="0" width="218" height="134"/>
				</defs>
				<clipPath id="SVGID_104_">
					<use xlink:href="#SVGID_103_"  style="overflow:visible;"/>
				</clipPath>
				<rect x="36" y="120" style="clip-path:url(#SVGID_104_);fill:#222323;" width="17" height="19"/>
			</g>
		</g>
		<g style="clip-path:url(#SVGID_2_);">
			<defs>
				<path id="SVGID_105_" d="M89.9,125.6c-0.2-1.8-0.6-2.3-2.6-2.6c-0.7,0.4-1.8,0.6-2.1,1.2c-0.9,1.7-1.6,3.5-2.1,5.4
					c-0.3,1.2,0.2,2.5,1.5,3.1c1,0.5,2.2,0.4,3-0.5C89.2,130.4,90.3,128.3,89.9,125.6 M86.3,130c-0.9-2.1-0.1-4.2,1.8-4.7
					C87.4,127.1,86.9,128.6,86.3,130"/>
			</defs>
			<clipPath id="SVGID_106_">
				<use xlink:href="#SVGID_105_"  style="overflow:visible;"/>
			</clipPath>
			<g style="clip-path:url(#SVGID_106_);">
				<defs>
					<rect id="SVGID_107_" y="0" width="218" height="134"/>
				</defs>
				<clipPath id="SVGID_108_">
					<use xlink:href="#SVGID_107_"  style="overflow:visible;"/>
				</clipPath>
				<rect x="78" y="118" style="clip-path:url(#SVGID_108_);fill:#222323;" width="17" height="20"/>
			</g>
		</g>
		<g style="clip-path:url(#SVGID_2_);">
			<defs>
				<path id="SVGID_109_" d="M153.1,129.8c0.6-1.2,1.3-2.2,1.6-3.3c0.2-0.8,0-2-0.5-2.5c-1-1-3.1-1.4-4.5-0.2
					c-0.3,0.3-0.4,0.9-0.6,1.3c0.5,0.2,0.9,0.5,1.4,0.5c0.6,0,1.2-0.2,2.2-0.4c-0.4,1-0.6,1.6-0.9,2.1c-0.6,0.9-1.3,1.6-1.9,2.5
					c-0.9,1.3-0.5,2.7,1,3.1c1.6,0.4,4.4-0.9,5.2-2.4C155.3,129,154.2,129.5,153.1,129.8"/>
			</defs>
			<clipPath id="SVGID_110_">
				<use xlink:href="#SVGID_109_"  style="overflow:visible;"/>
			</clipPath>
			<g style="clip-path:url(#SVGID_110_);">
				<defs>
					<rect id="SVGID_111_" y="0" width="218" height="134"/>
				</defs>
				<clipPath id="SVGID_112_">
					<use xlink:href="#SVGID_111_"  style="overflow:visible;"/>
				</clipPath>
				<rect x="144" y="118" style="clip-path:url(#SVGID_112_);fill:#222323;" width="17" height="20"/>
			</g>
		</g>
		<g style="clip-path:url(#SVGID_2_);">
			<defs>
				<path id="SVGID_113_" d="M94.9,128.4c-0.1-0.3-0.2-0.4-0.2-0.6c0.1-1.1,0.4-2.3,0.4-3.4c0-0.4-0.2-1.1-0.5-1.2
					c-0.4-0.1-1.1,0.1-1.3,0.5c-1.1,1.6-1.6,3.4-1.1,5.4c0.5,1.9,2.7,2.5,4.2,1.2c1.6-1.4,2.8-3.1,3.4-5.1c0.1-0.4,0.3-0.9,0.1-1.1
					c-0.3-0.4-0.8-0.9-1.3-1c-0.8-0.2-0.9,0.4-1,1C97.3,125.7,96.4,127.2,94.9,128.4"/>
			</defs>
			<clipPath id="SVGID_114_">
				<use xlink:href="#SVGID_113_"  style="overflow:visible;"/>
			</clipPath>
			<g style="clip-path:url(#SVGID_114_);">
				<defs>
					<rect id="SVGID_115_" y="0" width="218" height="134"/>
				</defs>
				<clipPath id="SVGID_116_">
					<use xlink:href="#SVGID_115_"  style="overflow:visible;"/>
				</clipPath>
				<rect x="87" y="118" style="clip-path:url(#SVGID_116_);fill:#222323;" width="18" height="18"/>
			</g>
		</g>
		<g style="clip-path:url(#SVGID_2_);">
			<defs>
				<path id="SVGID_117_" d="M54.9,128.7c-0.2,0-0.4-0.1-0.5-0.1c0-1,0.1-1.9,0-2.9c-0.1-0.6-0.3-1.4-0.7-1.6
					c-0.8-0.4-1.5,0.2-1.5,1c-0.1,1.7-0.1,3.4,0.1,5c0.1,1.1,1,1.7,2.1,1.8c1,0.1,1.9-0.4,2.4-1.3c0.7-1.5,1.4-3,2.2-4.5
					c0.4-0.8,0.4-1.5-0.6-1.8c-1-0.3-1.5,0.2-1.8,1.1C55.9,126.6,55.4,127.6,54.9,128.7"/>
			</defs>
			<clipPath id="SVGID_118_">
				<use xlink:href="#SVGID_117_"  style="overflow:visible;"/>
			</clipPath>
			<g style="clip-path:url(#SVGID_118_);">
				<defs>
					<rect id="SVGID_119_" y="0" width="218" height="134"/>
				</defs>
				<clipPath id="SVGID_120_">
					<use xlink:href="#SVGID_119_"  style="overflow:visible;"/>
				</clipPath>
				<rect x="47" y="119" style="clip-path:url(#SVGID_120_);fill:#222323;" width="17" height="18"/>
			</g>
		</g>
		<g style="clip-path:url(#SVGID_2_);">
			<defs>
				<path id="SVGID_121_" d="M38.1,130.8c-0.1-0.8-0.2-1.3-0.3-1.9c-0.1-0.3-0.2-0.6-0.3-0.8c-0.6-1.7-0.5-2,1.1-2.9
					c0.2-0.1,0.6-0.2,0.7-0.4c0.3-0.3,0.6-0.7,0.5-1c-0.1-0.3-0.5-0.8-0.8-0.8c-2-0.1-3.4,1-4.7,2.4c-1,1.2-0.3,2.2,0.3,3.2
					c0.7,1.2,0.9,2.4-0.4,3.4c-0.2,0.2-0.2,1.1,0.1,1.4c0.8,0.9,2.4,0.6,2.9-0.4C37.8,132.3,37.9,131.4,38.1,130.8"/>
			</defs>
			<clipPath id="SVGID_122_">
				<use xlink:href="#SVGID_121_"  style="overflow:visible;"/>
			</clipPath>
			<g style="clip-path:url(#SVGID_122_);">
				<defs>
					<rect id="SVGID_123_" y="0" width="218" height="134"/>
				</defs>
				<clipPath id="SVGID_124_">
					<use xlink:href="#SVGID_123_"  style="overflow:visible;"/>
				</clipPath>
				<rect x="29" y="118" style="clip-path:url(#SVGID_124_);fill:#222323;" width="16" height="21"/>
			</g>
		</g>
		<g style="clip-path:url(#SVGID_2_);">
			<defs>
				<path id="SVGID_125_" d="M142,130.5c0.3,0.3,1,0.9,1.6,1.5c0.5-0.4,1.4-0.8,1.5-1.3c0.4-1.6,0.6-3.2,0.8-4.9
					c0.1-0.7,0-1.4-0.4-2c-0.3-0.4-1.1-0.7-1.7-0.9c-0.2,0-0.8,0.6-0.9,0.9C142.6,125.9,142.4,127.9,142,130.5"/>
			</defs>
			<clipPath id="SVGID_126_">
				<use xlink:href="#SVGID_125_"  style="overflow:visible;"/>
			</clipPath>
			<g style="clip-path:url(#SVGID_126_);">
				<defs>
					<rect id="SVGID_127_" y="0" width="218" height="134"/>
				</defs>
				<clipPath id="SVGID_128_">
					<use xlink:href="#SVGID_127_"  style="overflow:visible;"/>
				</clipPath>
				<rect x="137" y="118" style="clip-path:url(#SVGID_128_);fill:#222323;" width="14" height="19"/>
			</g>
		</g>
	</g>
</g>
<line style="fill:none;" x1="1069" y1="-43" x2="-851" y2="-43"/>
<line style="fill:none;" x1="1069" y1="-43" x2="-851" y2="-43"/>
<line style="fill:none;" x1="1069" y1="-43" x2="-851" y2="-43"/>
<line style="fill:none;" x1="1069" y1="-43" x2="-851" y2="-43"/>
<line style="fill:none;" x1="1069" y1="-43" x2="-851" y2="-43"/>
<line style="fill:none;" x1="1069" y1="-43" x2="-851" y2="-43"/>
<line style="fill:none;" x1="1069" y1="-43" x2="-851" y2="-43"/>
<line style="fill:none;" x1="1069" y1="-43" x2="-851" y2="-43"/>
<line style="fill:none;" x1="1069" y1="-43" x2="-851" y2="-43"/>
<g>
</g>
<g>
</g>
<g>
</g>
<g>
</g>
<g>
</g>
<g>
</g>
<g>
</g>
<g>
</g>
<g>
</g>
<g>
</g>
<g>
</g>
<g>
</g>
<g>
</g>
<g>
</g>
<g>
</g>
</svg>
